<svg width="24" height="24" viewBox="0 0 24 24" fill="none" xmlns="http://www.w3.org/2000/svg">
<g clip-path="url(#clip0_2008_3001)">
<path d="M20.1837 20.1837H3.81625V3.81625H10.0919V0H1.90813C0.848057 0 0 0.848057 0 1.90813V22.0919C0 23.1519 0.848057 24 1.90813 24H22.0919C23.1519 24 24 23.1519 24 22.0919V13.9081H20.1837V20.1837Z" fill="#0087E0"/>
<path d="M8.6082 11.3648L7.12411 15.3083C6.95449 15.9867 7.33612 16.7076 8.01456 16.8772C8.22658 16.9196 8.481 16.9196 8.69301 16.8772L12.6365 15.3931C12.8485 15.3507 13.0605 15.2235 13.1877 15.0539L23.3644 4.8772C23.8732 4.36837 24.17 3.85953 23.6612 3.3931L20.905 0.594516C20.3962 0.0856821 19.5905 0.0856821 19.1241 0.594516L8.94743 10.7712C8.77782 10.9408 8.65061 11.1528 8.6082 11.3648Z" fill="#0087E0"/>
</g>
<defs>
<clipPath id="clip0_2008_3001">
<rect width="24" height="24" fill="white"/>
</clipPath>
</defs>
</svg>
