<svg width="31" height="36" viewBox="0 0 31 36" fill="none" xmlns="http://www.w3.org/2000/svg">
<g clip-path="url(#clip0_1975_7561)">
<path fill-rule="evenodd" clip-rule="evenodd" d="M7.29114 31.4433L2.73418 26.8864L3.94937 25.6712L7.29114 28.8611L14.2785 21.8737L15.4937 23.2408L7.29114 31.4433ZM9.11392 17.7725C4.10127 17.7725 0 21.8737 0 26.8864C0 31.899 4.10127 36.0003 9.11392 36.0003C14.1266 36.0003 18.2278 31.899 18.2278 26.8864C18.2278 21.8737 14.1266 17.7725 9.11392 17.7725Z" fill="white"/>
<path fill-rule="evenodd" clip-rule="evenodd" d="M21.266 0H9.11415C7.44326 0 6.07617 1.36709 6.07617 3.03797V16.7089C6.98756 16.4051 8.05086 16.2532 9.11415 16.2532C10.1774 16.2532 11.0888 16.4051 12.1521 16.7089V15.1899H24.304V18.2278H15.342C16.4053 18.9873 17.4686 20.0506 18.2281 21.2658H24.304V24.3038H19.4433C19.5952 25.0633 19.7471 25.9747 19.7471 26.8861C19.7471 28.1013 19.5952 29.3165 19.1395 30.3797H27.342C29.0129 30.3797 30.38 29.0127 30.38 27.3418V9.11392L21.266 0ZM19.7471 10.6329V2.27848L28.1015 10.6329H19.7471Z" fill="white"/>
</g>
<defs>
<clipPath id="clip0_1975_7561">
<rect width="30.3797" height="36" fill="white"/>
</clipPath>
</defs>
</svg>
