<svg width="29" height="28" viewBox="0 0 29 28" fill="none" xmlns="http://www.w3.org/2000/svg">
<path d="M12.6606 1.85289C13.1569 0.325406 15.3179 0.325402 15.8142 1.85288L17.9597 8.4561C18.1816 9.13921 18.8182 9.60171 19.5365 9.60171H26.4795C28.0856 9.60171 28.7534 11.6569 27.454 12.601L21.837 16.682C21.2559 17.1042 21.0128 17.8525 21.2347 18.5356L23.3802 25.1388C23.8765 26.6663 22.1283 27.9365 20.8289 26.9925L15.2119 22.9115C14.6308 22.4893 13.8439 22.4893 13.2629 22.9115L7.64582 26.9925C6.34647 27.9365 4.5982 26.6663 5.09451 25.1388L7.24003 18.5356C7.46198 17.8525 7.21883 17.1042 6.63774 16.682L1.02071 12.601C-0.27864 11.6569 0.389136 9.60171 1.99522 9.60171H8.93826C9.65652 9.60171 10.2931 9.13921 10.5151 8.4561L12.6606 1.85289Z" fill="#FFB118"/>
</svg>
